<?xml version="1.0" encoding="UTF-8" standalone="no"?>
<!-- Created with Inkscape (http://www.inkscape.org/) -->

<svg
   xmlns:dc="http://purl.org/dc/elements/1.1/"
   xmlns:cc="http://creativecommons.org/ns#"
   xmlns:rdf="http://www.w3.org/1999/02/22-rdf-syntax-ns#"
   xmlns:svg="http://www.w3.org/2000/svg"
   xmlns="http://www.w3.org/2000/svg"
   xmlns:xlink="http://www.w3.org/1999/xlink"
   xmlns:sodipodi="http://sodipodi.sourceforge.net/DTD/sodipodi-0.dtd"
   xmlns:inkscape="http://www.inkscape.org/namespaces/inkscape"
   width="32"
   height="32.000011"
   id="svg4674"
   version="1.1"
   inkscape:version="0.48.1 r9760"
   sodipodi:docname="Nuevo documento 12">
  <defs
     id="defs4676">
    <linearGradient
       inkscape:collect="always"
       xlink:href="#linearGradient5048"
       id="linearGradient12894"
       gradientUnits="userSpaceOnUse"
       gradientTransform="matrix(2.774389,0,0,1.969706,-1892.179,-872.8854)"
       x1="302.85715"
       y1="366.64789"
       x2="302.85715"
       y2="609.50507" />
    <linearGradient
       id="linearGradient5048">
      <stop
         id="stop5050"
         style="stop-color:#000000;stop-opacity:0"
         offset="0" />
      <stop
         id="stop5056"
         style="stop-color:#000000;stop-opacity:1"
         offset="0.5" />
      <stop
         id="stop5052"
         style="stop-color:#000000;stop-opacity:0"
         offset="1" />
    </linearGradient>
    <radialGradient
       inkscape:collect="always"
       xlink:href="#linearGradient5060"
       id="radialGradient12896"
       gradientUnits="userSpaceOnUse"
       gradientTransform="matrix(2.774389,0,0,1.969706,-1891.633,-872.8854)"
       cx="605.71429"
       cy="486.64789"
       fx="605.71429"
       fy="486.64789"
       r="117.14286" />
    <linearGradient
       id="linearGradient5060">
      <stop
         id="stop5062"
         style="stop-color:#000000;stop-opacity:1"
         offset="0" />
      <stop
         id="stop5064"
         style="stop-color:#000000;stop-opacity:0"
         offset="1" />
    </linearGradient>
    <radialGradient
       inkscape:collect="always"
       xlink:href="#linearGradient5060"
       id="radialGradient12898"
       gradientUnits="userSpaceOnUse"
       gradientTransform="matrix(-2.774389,0,0,1.969706,112.7623,-872.8854)"
       cx="605.71429"
       cy="486.64789"
       fx="605.71429"
       fy="486.64789"
       r="117.14286" />
    <linearGradient
       inkscape:collect="always"
       xlink:href="#linearGradient12495"
       id="linearGradient12900"
       gradientUnits="userSpaceOnUse"
       gradientTransform="matrix(0.65537735,0,0,0.65918511,46.477088,52.825449)"
       x1="157.93747"
       y1="42.01038"
       x2="157.93747"
       y2="25.123123" />
    <linearGradient
       inkscape:collect="always"
       id="linearGradient12495">
      <stop
         style="stop-color:#858b93;stop-opacity:1"
         offset="0"
         id="stop12497" />
      <stop
         style="stop-color:#42454a;stop-opacity:1"
         offset="1"
         id="stop12499" />
    </linearGradient>
    <linearGradient
       inkscape:collect="always"
       xlink:href="#linearGradient12503"
       id="linearGradient12902"
       gradientUnits="userSpaceOnUse"
       gradientTransform="matrix(0.65537735,0,0,0.64285399,46.477088,52.964347)"
       x1="158.0713"
       y1="7.6875005"
       x2="158.0713"
       y2="18.18902" />
    <linearGradient
       id="linearGradient12503">
      <stop
         style="stop-color:#dadcde;stop-opacity:1"
         offset="0"
         id="stop12505" />
      <stop
         style="stop-color:#a5aaaf;stop-opacity:1;"
         offset="1"
         id="stop12507" />
    </linearGradient>
    <linearGradient
       inkscape:collect="always"
       xlink:href="#linearGradient12466"
       id="linearGradient12904"
       gradientUnits="userSpaceOnUse"
       x1="159"
       y1="2"
       x2="159"
       y2="19" />
    <linearGradient
       inkscape:collect="always"
       id="linearGradient12466">
      <stop
         style="stop-color:#ffffff;stop-opacity:1;"
         offset="0"
         id="stop12468" />
      <stop
         style="stop-color:#ffffff;stop-opacity:0;"
         offset="1"
         id="stop12470" />
    </linearGradient>
    <linearGradient
       inkscape:collect="always"
       xlink:href="#linearGradient12466"
       id="linearGradient12906"
       gradientUnits="userSpaceOnUse"
       x1="157.52379"
       y1="48.086678"
       x2="157.52379"
       y2="21.655846" />
  </defs>
  <sodipodi:namedview
     id="base"
     pagecolor="#ffffff"
     bordercolor="#666666"
     borderopacity="1.0"
     inkscape:pageopacity="0.0"
     inkscape:pageshadow="2"
     inkscape:zoom="22.281242"
     inkscape:cx="16"
     inkscape:cy="16.000006"
     inkscape:document-units="px"
     inkscape:current-layer="layer1"
     showgrid="false"
     fit-margin-top="0"
     fit-margin-left="0"
     fit-margin-right="0"
     fit-margin-bottom="0" />
  <metadata
     id="metadata4679">
    <rdf:RDF>
      <cc:Work
         rdf:about="">
        <dc:format>image/svg+xml</dc:format>
        <dc:type
           rdf:resource="http://purl.org/dc/dcmitype/StillImage" />
        <dc:title></dc:title>
      </cc:Work>
    </rdf:RDF>
  </metadata>
  <g
     inkscape:label="Capa 1"
     inkscape:groupmode="layer"
     id="layer1"
     transform="translate(-226.85715,-290.64789)">
    <g
       style="display:inline;enable-background:new"
       id="g12876"
       transform="matrix(1.0311574,0,0,1,88.110783,235.6479)">
      <g
         id="g12784"
         transform="matrix(0.01406548,0,0,0.0096019,162.53704,83.853838)">
        <rect
           style="opacity:0.40206185;fill:url(#linearGradient12894);fill-opacity:1;fill-rule:nonzero;stroke:none;stroke-width:1;marker:none;visibility:visible;display:inline;overflow:visible"
           id="rect12786"
           y="-150.69685"
           x="-1559.2523"
           height="478.35718"
           width="1339.6335" />
        <path
           inkscape:connector-curvature="0"
           style="opacity:0.40206185;fill:url(#radialGradient12896);fill-opacity:1;fill-rule:nonzero;stroke:none;stroke-width:1;marker:none;visibility:visible;display:inline;overflow:visible"
           id="path12788"
           d="m -219.61876,-150.68038 c 0,0 0,478.33079 0,478.33079 142.874166,0.90045 345.40022,-107.16966 345.40014,-239.196175 0,-132.026537 -159.436816,-239.134595 -345.40014,-239.134615 z" />
        <path
           inkscape:connector-curvature="0"
           style="opacity:0.40206185;fill:url(#radialGradient12898);fill-opacity:1;fill-rule:nonzero;stroke:none;stroke-width:1;marker:none;visibility:visible;display:inline;overflow:visible"
           id="path12790"
           d="m -1559.2523,-150.68038 c 0,0 0,478.33079 0,478.33079 -142.8742,0.90045 -345.4002,-107.16966 -345.4002,-239.196175 0,-132.026537 159.4368,-239.134595 345.4002,-239.134615 z" />
      </g>
      <path
         id="path12792"
         d="m 136.16094,80.765768 c -0.0377,0.23909 -0.0977,0.59212 -0.11326,0.73193 -0.2729,2.45048 1.82437,3.20661 4.71132,3.20661 l 21.20091,0 c 1.60621,0 2.41601,-1.55674 2.08384,-3.20661 l -0.15854,-0.73193 -27.72427,0 z"
         style="color:#000000;fill:#3a4452;fill-opacity:1;fill-rule:nonzero;stroke:#3a4452;stroke-width:0.98477608;stroke-opacity:1;marker:none;visibility:visible;display:inline;overflow:visible;enable-background:accumulate"
         inkscape:connector-curvature="0" />
      <path
         style="color:#000000;fill:#d8dde3;fill-opacity:1;fill-rule:nonzero;stroke:#b6bfca;stroke-width:0.98477608;stroke-opacity:1;marker:none;visibility:visible;display:inline;overflow:visible;enable-background:accumulate"
         d="m 136.16094,79.86695 c -0.0377,0.220567 -0.0977,0.546213 -0.11326,0.675168 -0.2729,2.260385 1.82437,2.957884 4.71132,2.957884 l 21.20091,0 c 1.60621,0 2.41601,-1.43598 2.08384,-2.957884 l -0.15854,-0.675168 -27.72427,0 z"
         id="path12794"
         inkscape:connector-curvature="0" />
      <path
         style="color:#000000;fill:url(#linearGradient12900);fill-opacity:1;fill-rule:nonzero;stroke:#5c6268;stroke-width:0.9847762;stroke-opacity:1;marker:none;visibility:visible;display:inline;overflow:visible;enable-background:accumulate"
         d="m 143.11465,66.338743 13.77152,0 c 1.60621,0 2.56712,0.849446 2.89927,1.757826 l 4.2583,11.645606 C 164.37591,80.650544 163.5661,81.5 161.9599,81.5 c 0,0 -18.31397,0 -21.20091,0 -2.88696,0 -4.98422,-0.408678 -4.71132,-1.757825 0.2729,-1.349146 4.1677,-11.645606 4.1677,-11.645606 0.19553,-0.966596 1.29308,-1.757826 2.89928,-1.757826 z"
         id="path12796"
         inkscape:connector-curvature="0"
         sodipodi:nodetypes="ssssszzss" />
      <path
         style="color:#000000;fill:#32373d;fill-opacity:1;fill-rule:nonzero;stroke:none;stroke-width:1;marker:none;visibility:visible;display:inline;overflow:visible;enable-background:accumulate"
         d="m 143.39614,68.284654 -3.56679,10.446636 c 6.11621,0 14.2395,0 20.3557,0 l -3.52583,-10.446636 c -4.42102,0 -8.84204,0 -13.26308,0 z"
         id="path12798"
         inkscape:connector-curvature="0"
         sodipodi:nodetypes="ccccc" />
      <path
         style="opacity:0.5;color:#000000;fill:#ffffff;fill-opacity:1;fill-rule:nonzero;stroke:none;stroke-width:1;marker:none;visibility:visible;display:inline;overflow:visible;enable-background:accumulate"
         d="m 141.501,75.193568 -1.42783,3.27957 19.90512,0 -1.14108,-3.27957 z"
         id="path12800"
         inkscape:connector-curvature="0"
         sodipodi:nodetypes="ccccc" />
      <path
         sodipodi:nodetypes="ccccc"
         inkscape:connector-curvature="0"
         id="path12802"
         d="m 143.32068,68.5 -3.46552,10 c 6.81026,0 13.62053,0 20.43078,0 l -3.46553,-10 c -4.92271,0 -8.577,0 -13.49973,0 z"
         style="color:#000000;fill:none;stroke:#d1d9dd;stroke-width:0.98477608;stroke-linejoin:round;stroke-opacity:1;marker:none;visibility:visible;display:inline;overflow:visible;enable-background:accumulate" />
      <path
         sodipodi:nodetypes="ssssszzss"
         inkscape:connector-curvature="0"
         id="path12804"
         d="m 143.11465,65.5 13.77152,0 c 1.60621,0 2.56712,-0.504245 2.89927,-1.043472 l 4.2583,-6.913013 c 0.33217,-0.53922 -0.47764,-1.043471 -2.08384,-1.043471 0,0 -18.31397,0 -21.20091,0 -2.88696,0 -4.98422,0.242596 -4.71132,1.043471 0.2729,0.800875 4.1677,6.913013 4.1677,6.913013 0.19553,0.573785 1.29308,1.043472 2.89928,1.043472 z"
         style="color:#000000;fill:url(#linearGradient12902);fill-opacity:1;fill-rule:nonzero;stroke:#adb2b7;stroke-width:0.98477614;stroke-opacity:1;marker:none;visibility:visible;display:inline;overflow:visible;enable-background:accumulate" />
      <path
         transform="matrix(0.65537733,0,0,0.63782639,46.477086,53.019125)"
         sodipodi:type="inkscape:offset"
         inkscape:radius="-1.5077746"
         inkscape:original="M 143.84375 5.5 C 139.43872 5.5 136.23985 5.8791874 136.65625 7.125 C 137.07266 8.3708107 143.03125 17.875 143.03125 17.875 C 143.32959 18.767561 145.01796 19.5 147.46875 19.5 L 168.46875 19.5 C 170.91956 19.5 172.36819 18.713802 172.875 17.875 L 179.375 7.125 C 179.88183 6.2862088 178.66956 5.5 176.21875 5.5 L 143.84375 5.5 z "
         style="color:#000000;fill:none;stroke:url(#linearGradient12904);stroke-width:1.52314258;stroke-opacity:1;marker:none;visibility:visible;display:inline;overflow:visible;enable-background:accumulate"
         id="path12806"
         d="m 143.84375,7 c -2.15925,0 -4.02607,0.1004476 -5.125,0.3125 -0.15944,0.030766 -0.12729,0.058385 -0.25,0.09375 0.17998,0.330826 0.39402,0.7032331 0.65625,1.15625 0.60707,1.0487504 1.38862,2.364404 2.15625,3.625 1.53526,2.521192 3.03125,4.875 3.03125,4.875 a 1.5079254,1.5079254 0 0 1 0.15625,0.34375 c -0.0826,-0.247167 -0.0362,0.01241 0.5,0.21875 0.53619,0.206344 1.42481,0.375 2.5,0.375 l 21,0 c 2.12836,0 3.06019,-0.798987 3.125,-0.90625 l 5.96875,-9.875 C 177.22116,7.1249278 176.94555,7 176.21875,7 l -32.375,0 z" />
      <path
         style="opacity:0.2;color:#000000;fill:#ffffff;fill-opacity:1;fill-rule:nonzero;stroke:none;stroke-width:1;marker:none;visibility:visible;display:inline;overflow:visible;enable-background:accumulate"
         d="m 143.39101,67.978522 -1.6794,5.411286 16.24107,-1.54609 -1.29028,-3.865196 z"
         id="path12808"
         inkscape:connector-curvature="0"
         sodipodi:nodetypes="ccccc" />
      <path
         transform="matrix(0.65537733,0,0,0.65591325,46.477086,52.892517)"
         sodipodi:type="inkscape:offset"
         inkscape:radius="-1.4667684"
         inkscape:original="M 147.46875 20.5 C 145.01796 20.5 143.32959 21.6899 143.03125 23.15625 C 143.03125 23.15625 137.07266 38.797061 136.65625 40.84375 C 136.23985 42.890442 139.43872 43.5 143.84375 43.5 L 176.21875 43.5 C 178.66956 43.5 179.88183 42.221764 179.375 40.84375 L 172.875 23.15625 C 172.36819 21.778218 170.91956 20.5 168.46875 20.5 L 147.46875 20.5 z "
         style="color:#000000;fill:none;stroke:url(#linearGradient12906);stroke-width:1.50199533;stroke-opacity:1;marker:none;visibility:visible;display:inline;overflow:visible;enable-background:accumulate"
         id="path12810"
         d="m 147.46875,21.96875 c -1.97603,0 -2.8863,0.909929 -3,1.46875 a 1.4669151,1.4669151 0 0 1 -0.0625,0.25 c 0,0 -1.49261,3.904714 -3.03125,8.0625 -0.76932,2.078893 -1.54376,4.227931 -2.15625,5.96875 -0.61249,1.740819 -1.08438,3.206621 -1.125,3.40625 -0.0281,0.138206 -0.0716,-0.01364 -0.0312,0.03125 0.0404,0.04489 0.30894,0.216666 0.8125,0.375 1.00711,0.316668 2.83389,0.5 4.96875,0.5 l 32.375,0 c 0.9704,0 1.54386,-0.279983 1.71875,-0.4375 0.17489,-0.157517 0.13442,-0.05447 0.0625,-0.25 l -6.5,-17.6875 c -0.29569,-0.803993 -1.09043,-1.6875 -3.03125,-1.6875 l -21,0 z" />
      <rect
         y="65.5"
         x="157.34393"
         height="1"
         width="0.96978408"
         id="rect12812"
         style="color:#000000;fill:#acb1b5;fill-opacity:1;stroke:#8d949b;stroke-width:0.98477614;stroke-miterlimit:4;stroke-opacity:1;stroke-dasharray:none;marker:none;visibility:visible;display:inline;overflow:visible;enable-background:accumulate" />
      <rect
         style="color:#000000;fill:#acb1b5;fill-opacity:1;stroke:#8d949b;stroke-width:0.98477608;stroke-miterlimit:4;stroke-opacity:1;stroke-dasharray:none;marker:none;visibility:visible;display:inline;overflow:visible;enable-background:accumulate"
         id="rect12814"
         width="0.9697966"
         height="1"
         x="141.82738"
         y="65.5" />
    </g>
  </g>
</svg>
